<svg width="24" height="17" viewBox="0 0 24 17" fill="none" xmlns="http://www.w3.org/2000/svg">
<path d="M18.5455 15.4062C18.1115 15.4062 17.6952 15.2383 17.3884 14.9395C17.0815 14.6406 16.9091 14.2352 16.9091 13.8125C16.9091 13.3898 17.0815 12.9844 17.3884 12.6855C17.6952 12.3867 18.1115 12.2188 18.5455 12.2188C18.9794 12.2188 19.3957 12.3867 19.7025 12.6855C20.0094 12.9844 20.1818 13.3898 20.1818 13.8125C20.1818 14.2352 20.0094 14.6406 19.7025 14.9395C19.3957 15.2383 18.9794 15.4062 18.5455 15.4062ZM20.1818 5.84375L22.32 8.5H17.4545V5.84375M5.45455 15.4062C5.02056 15.4062 4.60434 15.2383 4.29746 14.9395C3.99058 14.6406 3.81818 14.2352 3.81818 13.8125C3.81818 13.3898 3.99058 12.9844 4.29746 12.6855C4.60434 12.3867 5.02056 12.2188 5.45455 12.2188C5.88854 12.2188 6.30475 12.3867 6.61163 12.6855C6.91851 12.9844 7.09091 13.3898 7.09091 13.8125C7.09091 14.2352 6.91851 14.6406 6.61163 14.9395C6.30475 15.2383 5.88854 15.4062 5.45455 15.4062ZM20.7273 4.25H17.4545V0H2.18182C0.970909 0 0 0.945625 0 2.125V13.8125H2.18182C2.18182 14.6579 2.52662 15.4686 3.14038 16.0664C3.75413 16.6642 4.58656 17 5.45455 17C6.32253 17 7.15496 16.6642 7.76871 16.0664C8.38247 15.4686 8.72727 14.6579 8.72727 13.8125H15.2727C15.2727 14.6579 15.6175 15.4686 16.2313 16.0664C16.845 16.6642 17.6775 17 18.5455 17C19.4134 17 20.2459 16.6642 20.8596 16.0664C21.4734 15.4686 21.8182 14.6579 21.8182 13.8125H24V8.5L20.7273 4.25Z" fill="#404D66" fill-opacity="0.25"/>
</svg>
